<mxfile host="app.diagrams.net" agent="Mozilla/5.0 (Macintosh; Intel Mac OS X 10_15_7) AppleWebKit/537.36 (KHTML, like Gecko) Chrome/135.0.0.0 Safari/537.36" version="27.0.5">
  <diagram name="Page-1" id="csjZFlARtt-LiwS3NF0p">
    <mxGraphModel dx="1426" dy="766" grid="0" gridSize="10" guides="1" tooltips="1" connect="1" arrows="1" fold="1" page="1" pageScale="1" pageWidth="850" pageHeight="1100" background="light-dark(#FFFFFF,#FFFFFF)" math="0" shadow="0">
      <root>
        <mxCell id="0" />
        <mxCell id="1" parent="0" />
        <mxCell id="Wk4hWGlD7-Yfsc7xeJYJ-12" style="edgeStyle=orthogonalEdgeStyle;rounded=0;orthogonalLoop=1;jettySize=auto;html=1;entryX=0.041;entryY=0.5;entryDx=0;entryDy=0;entryPerimeter=0;strokeColor=light-dark(#000000,#424242);" edge="1" parent="1" source="Wk4hWGlD7-Yfsc7xeJYJ-2" target="Wk4hWGlD7-Yfsc7xeJYJ-11">
          <mxGeometry relative="1" as="geometry">
            <mxPoint x="165" y="119" as="targetPoint" />
          </mxGeometry>
        </mxCell>
        <mxCell id="Wk4hWGlD7-Yfsc7xeJYJ-2" value="" style="sketch=0;outlineConnect=0;fontColor=#ffffff;fillColor=#1ba1e2;strokeColor=#006EAF;dashed=0;verticalLabelPosition=bottom;verticalAlign=top;align=center;html=1;fontSize=12;fontStyle=0;aspect=fixed;pointerEvents=1;shape=mxgraph.aws4.user;" vertex="1" parent="1">
          <mxGeometry x="12" y="88" width="78" height="78" as="geometry" />
        </mxCell>
        <mxCell id="Wk4hWGlD7-Yfsc7xeJYJ-3" value="AWS Cloud" style="points=[[0,0],[0.25,0],[0.5,0],[0.75,0],[1,0],[1,0.25],[1,0.5],[1,0.75],[1,1],[0.75,1],[0.5,1],[0.25,1],[0,1],[0,0.75],[0,0.5],[0,0.25]];outlineConnect=0;html=1;whiteSpace=wrap;fontSize=12;fontStyle=0;container=1;pointerEvents=0;collapsible=0;recursiveResize=0;shape=mxgraph.aws4.group;grIcon=mxgraph.aws4.group_aws_cloud;strokeColor=#C73500;fillColor=none;verticalAlign=top;align=left;spacingLeft=30;fontColor=light-dark(#000000,#FFB570);dashed=0;" vertex="1" parent="1">
          <mxGeometry x="334" y="17" width="489" height="512" as="geometry" />
        </mxCell>
        <mxCell id="Wk4hWGlD7-Yfsc7xeJYJ-6" value="Lambda&lt;br&gt;&lt;b&gt;ScrappyTheRooster-API&lt;/b&gt;" style="outlineConnect=0;dashed=0;verticalLabelPosition=bottom;verticalAlign=top;align=center;html=1;shape=mxgraph.aws3.lambda;fillColor=#F58534;gradientColor=none;fontColor=light-dark(#000000,#424242);" vertex="1" parent="Wk4hWGlD7-Yfsc7xeJYJ-3">
          <mxGeometry x="67" y="359" width="76.5" height="93" as="geometry" />
        </mxCell>
        <mxCell id="Wk4hWGlD7-Yfsc7xeJYJ-7" value="&lt;div&gt;&lt;font style=&quot;color: light-dark(rgb(0, 0, 0), rgb(66, 66, 66)); background-color: light-dark(rgb(255, 255, 255), rgb(255, 255, 255));&quot;&gt;API Gateway&lt;/font&gt;&lt;/div&gt;&lt;font style=&quot;color: light-dark(rgb(0, 0, 0), rgb(66, 66, 66));&quot;&gt;&lt;b style=&quot;background-color: light-dark(rgb(255, 255, 255), rgb(255, 255, 255));&quot;&gt;ScrappyTheRooster-APIGateway&lt;/b&gt;&lt;/font&gt;" style="outlineConnect=0;dashed=0;verticalLabelPosition=bottom;verticalAlign=top;align=center;html=1;shape=mxgraph.aws3.api_gateway;fillColor=light-dark(#F0A30A,#BA9E4A);fontColor=#000000;strokeColor=#BD7000;labelBackgroundColor=light-dark(#FFFFFF,#FFFFFF);" vertex="1" parent="Wk4hWGlD7-Yfsc7xeJYJ-3">
          <mxGeometry x="67" y="63.5" width="76.5" height="93" as="geometry" />
        </mxCell>
        <mxCell id="Wk4hWGlD7-Yfsc7xeJYJ-9" value="&lt;font style=&quot;color: light-dark(rgb(0, 0, 0), rgb(66, 66, 66));&quot;&gt;Dynamo DB&lt;/font&gt;&lt;div&gt;&lt;font style=&quot;color: light-dark(rgb(0, 0, 0), rgb(66, 66, 66));&quot;&gt;&lt;b&gt;ScrappyTheRooster-Loot&lt;/b&gt;&lt;/font&gt;&lt;/div&gt;" style="outlineConnect=0;dashed=0;verticalLabelPosition=bottom;verticalAlign=top;align=center;html=1;shape=mxgraph.aws3.dynamo_db;fillColor=#2E73B8;gradientColor=none;" vertex="1" parent="Wk4hWGlD7-Yfsc7xeJYJ-3">
          <mxGeometry x="329" y="365" width="72" height="81" as="geometry" />
        </mxCell>
        <mxCell id="Wk4hWGlD7-Yfsc7xeJYJ-15" style="edgeStyle=orthogonalEdgeStyle;rounded=0;orthogonalLoop=1;jettySize=auto;html=1;entryX=0.5;entryY=0;entryDx=0;entryDy=0;entryPerimeter=0;strokeColor=light-dark(#000000,#424242);" edge="1" parent="Wk4hWGlD7-Yfsc7xeJYJ-3" target="Wk4hWGlD7-Yfsc7xeJYJ-6">
          <mxGeometry relative="1" as="geometry">
            <mxPoint x="105" y="195" as="sourcePoint" />
          </mxGeometry>
        </mxCell>
        <mxCell id="Wk4hWGlD7-Yfsc7xeJYJ-16" style="edgeStyle=orthogonalEdgeStyle;rounded=0;orthogonalLoop=1;jettySize=auto;html=1;entryX=0;entryY=0.5;entryDx=0;entryDy=0;entryPerimeter=0;strokeColor=light-dark(#000000,#424242);" edge="1" parent="Wk4hWGlD7-Yfsc7xeJYJ-3" source="Wk4hWGlD7-Yfsc7xeJYJ-6" target="Wk4hWGlD7-Yfsc7xeJYJ-9">
          <mxGeometry relative="1" as="geometry" />
        </mxCell>
        <mxCell id="Wk4hWGlD7-Yfsc7xeJYJ-10" style="edgeStyle=orthogonalEdgeStyle;rounded=0;orthogonalLoop=1;jettySize=auto;html=1;exitX=1;exitY=1;exitDx=0;exitDy=0;" edge="1" parent="1" source="Wk4hWGlD7-Yfsc7xeJYJ-3" target="Wk4hWGlD7-Yfsc7xeJYJ-3">
          <mxGeometry relative="1" as="geometry" />
        </mxCell>
        <mxCell id="Wk4hWGlD7-Yfsc7xeJYJ-14" style="edgeStyle=orthogonalEdgeStyle;rounded=0;orthogonalLoop=1;jettySize=auto;html=1;strokeColor=light-dark(#000000,#424242);" edge="1" parent="1" source="Wk4hWGlD7-Yfsc7xeJYJ-11" target="Wk4hWGlD7-Yfsc7xeJYJ-7">
          <mxGeometry relative="1" as="geometry" />
        </mxCell>
        <mxCell id="Wk4hWGlD7-Yfsc7xeJYJ-11" value="" style="points=[];aspect=fixed;html=1;align=center;shadow=0;dashed=0;fillColor=#FF6A00;strokeColor=none;shape=mxgraph.alibaba_cloud.domain;" vertex="1" parent="1">
          <mxGeometry x="204" y="90.5" width="73" height="73" as="geometry" />
        </mxCell>
        <mxCell id="Wk4hWGlD7-Yfsc7xeJYJ-17" value="&lt;font style=&quot;color: light-dark(rgb(0, 0, 0), rgb(66, 66, 66));&quot;&gt;www.scrappytherooster.com&lt;/font&gt;&lt;div&gt;&lt;font style=&quot;color: light-dark(rgb(0, 0, 0), rgb(66, 66, 66));&quot;&gt;www.api.scrappytherooster.com&lt;/font&gt;&lt;/div&gt;" style="text;html=1;align=center;verticalAlign=middle;resizable=0;points=[];autosize=1;strokeColor=none;fillColor=none;" vertex="1" parent="1">
          <mxGeometry x="145" y="163.5" width="187" height="41" as="geometry" />
        </mxCell>
      </root>
    </mxGraphModel>
  </diagram>
</mxfile>
